<svg width="3876" height="160" viewBox="0 0 3876 160" fill="none" xmlns="http://www.w3.org/2000/svg">
<g clip-path="url(#clip0_794_8)">
<path d="M-77 -153V-112.765C-77 19.4344 -14.576 143 94.1101 143C208.61 143 236.397 66.2189 347.307 66.2189C458.216 66.2189 453.61 160.175 631.308 160.175C780.61 160.175 796.167 79.6322 915.309 66.2189C1028.05 53.5265 1086.17 142.856 1199.31 142.856C1312.44 142.856 1372.4 66.2189 1483.31 66.2189C1594.22 66.2189 1654.18 142.856 1767.31 142.856C1880.45 142.856 1940.4 66.2189 2051.31 66.2189C2162.22 66.2189 2222.18 142.856 2335.31 142.856C2448.45 142.856 2506.18 66.2188 2619.31 66.2189C2732.45 66.2189 2792.41 142.856 2903.32 142.856C3014.22 142.856 3074.18 66.2189 3187.32 66.2189C3300.45 66.2188 3358.18 142.856 3471.32 142.856C3584.45 142.856 3644.41 66.2189 3755.32 66.2189C3866.23 66.2189 3964.63 226.761 4039.32 112.856C4096.22 26.0779 4039.32 -153 4039.32 -153H-77Z" fill="#181818"/>
</g>
<defs>
<clipPath id="clip0_794_8">
<rect width="3876" height="160" fill="white"/>
</clipPath>
</defs>
</svg>
